<svg width="71" height="75" viewBox="0 0 71 75" fill="none" xmlns="http://www.w3.org/2000/svg">
<path d="M54.3056 8.25898V2.68149C54.3056 1.21561 52.9834 0 51.3889 0C49.7945 0 48.4722 1.21561 48.4722 2.68149V8.04446H23.1946V2.68149C23.1946 1.21561 21.8724 0 20.2779 0C18.6835 0 17.3613 1.21561 17.3613 2.68149V8.25898C6.86125 9.15281 1.76681 14.9091 0.989034 23.4541C0.911256 24.4909 1.84459 25.349 2.93348 25.349H68.7334C69.8611 25.349 70.7945 24.4552 70.6778 23.4541C69.9 14.9091 64.8056 9.15281 54.3056 8.25898Z" fill="#072D44"/>
<path d="M67.0956 30.7114H4.87339C2.7345 30.7114 0.984497 32.3202 0.984497 34.2866V56.3105C0.984497 67.0365 6.81783 74.1871 20.4289 74.1871H51.5401C65.1512 74.1871 70.9845 67.0365 70.9845 56.3105V34.2866C70.9845 32.3202 69.2345 30.7114 67.0956 30.7114ZM25.1345 60.6367C24.9401 60.7797 24.7456 60.9585 24.5512 61.0657C24.3178 61.2087 24.0845 61.316 23.8512 61.3875C23.6178 61.4948 23.3845 61.5663 23.1512 61.602C22.8789 61.6378 22.6456 61.6735 22.3734 61.6735C21.8678 61.6735 21.3623 61.5663 20.8956 61.3875C20.3901 61.2087 20.0012 60.9585 19.6123 60.6367C18.9123 59.9574 18.4845 59.0278 18.4845 58.0982C18.4845 57.1686 18.9123 56.239 19.6123 55.5597C20.0012 55.238 20.3901 54.9877 20.8956 54.8089C21.5956 54.5229 22.3734 54.4514 23.1512 54.5944C23.3845 54.6302 23.6178 54.7017 23.8512 54.8089C24.0845 54.8804 24.3178 54.9877 24.5512 55.1307C24.7456 55.2737 24.9401 55.4167 25.1345 55.5597C25.8345 56.239 26.2623 57.1686 26.2623 58.0982C26.2623 59.0278 25.8345 59.9574 25.1345 60.6367ZM25.1345 48.1231C24.3956 48.7666 23.3845 49.1599 22.3734 49.1599C21.3623 49.1599 20.3512 48.7666 19.6123 48.1231C18.9123 47.4438 18.4845 46.5142 18.4845 45.5846C18.4845 44.655 18.9123 43.7254 19.6123 43.0461C20.7012 42.045 22.4123 41.7233 23.8512 42.2953C24.3567 42.4741 24.7845 42.7243 25.1345 43.0461C25.8345 43.7254 26.2623 44.655 26.2623 45.5846C26.2623 46.5142 25.8345 47.4438 25.1345 48.1231ZM38.7456 60.6367C38.0067 61.2802 36.9956 61.6735 35.9845 61.6735C34.9734 61.6735 33.9623 61.2802 33.2234 60.6367C32.5234 59.9574 32.0956 59.0278 32.0956 58.0982C32.0956 57.1686 32.5234 56.239 33.2234 55.5597C34.6623 54.2369 37.3067 54.2369 38.7456 55.5597C39.4456 56.239 39.8734 57.1686 39.8734 58.0982C39.8734 59.0278 39.4456 59.9574 38.7456 60.6367ZM38.7456 48.1231C38.5512 48.2661 38.3567 48.4091 38.1623 48.5521C37.9289 48.6951 37.6956 48.8024 37.4623 48.8739C37.2289 48.9811 36.9956 49.0527 36.7623 49.0884C36.4901 49.1242 36.2567 49.1599 35.9845 49.1599C34.9734 49.1599 33.9623 48.7666 33.2234 48.1231C32.5234 47.4438 32.0956 46.5142 32.0956 45.5846C32.0956 44.655 32.5234 43.7254 33.2234 43.0461C33.5734 42.7243 34.0012 42.4741 34.5067 42.2953C35.9456 41.7233 37.6567 42.045 38.7456 43.0461C39.4456 43.7254 39.8734 44.655 39.8734 45.5846C39.8734 46.5142 39.4456 47.4438 38.7456 48.1231ZM52.3567 60.6367C51.6178 61.2802 50.6067 61.6735 49.5956 61.6735C48.5845 61.6735 47.5734 61.2802 46.8345 60.6367C46.1345 59.9574 45.7067 59.0278 45.7067 58.0982C45.7067 57.1686 46.1345 56.239 46.8345 55.5597C48.2734 54.2369 50.9178 54.2369 52.3567 55.5597C53.0567 56.239 53.4845 57.1686 53.4845 58.0982C53.4845 59.0278 53.0567 59.9574 52.3567 60.6367ZM52.3567 48.1231C52.1623 48.2661 51.9678 48.4091 51.7734 48.5521C51.5401 48.6951 51.3067 48.8024 51.0734 48.8739C50.8401 48.9811 50.6067 49.0527 50.3734 49.0884C50.1012 49.1242 49.8289 49.1599 49.5956 49.1599C48.5845 49.1599 47.5734 48.7666 46.8345 48.1231C46.1345 47.4438 45.7067 46.5142 45.7067 45.5846C45.7067 44.655 46.1345 43.7254 46.8345 43.0461C47.2234 42.7243 47.6123 42.4741 48.1178 42.2953C48.8178 42.0093 49.5956 41.9378 50.3734 42.0808C50.6067 42.1165 50.8401 42.188 51.0734 42.2953C51.3067 42.3668 51.5401 42.4741 51.7734 42.6171L52.3567 43.0461C53.0567 43.7254 53.4845 44.655 53.4845 45.5846C53.4845 46.5142 53.0567 47.4438 52.3567 48.1231Z" fill="#072D44"/>
</svg>
