<svg width="77" height="78" viewBox="0 0 77 78" fill="none" xmlns="http://www.w3.org/2000/svg">
<path d="M57.4779 77.0025H19.5844C9.46015 77.0025 3.02404 71.0214 2.44551 61.0289L0.5653 31.4815C0.276036 27.0046 1.83083 22.7068 4.94041 19.4476C8.01383 16.1884 12.3528 14.326 16.8364 14.326C17.9934 14.326 19.1143 13.6456 19.6567 12.5711L22.26 7.44954C24.3934 3.25917 29.7447 0 34.4091 0H42.6893C47.3537 0 52.6689 3.25917 54.8022 7.41373L57.4056 12.6427C57.9479 13.6456 59.0327 14.326 60.2259 14.326C64.7095 14.326 69.0484 16.1884 72.1218 19.4476C75.2314 22.7426 76.7862 27.0046 76.497 31.4815L74.6167 61.0647C73.9659 71.2004 67.7106 77.0025 57.4779 77.0025ZM34.4091 5.37227C31.7335 5.37227 28.3346 7.44954 27.1052 9.84915L24.5018 15.0065C22.9832 17.9076 20.0544 19.6983 16.8364 19.6983C13.7991 19.6983 10.9787 20.916 8.88162 23.1007C6.82062 25.2855 5.77204 28.1507 5.98899 31.1233L7.8692 60.7066C8.30306 67.9413 12.2443 71.6302 19.5844 71.6302H57.4779C64.7818 71.6302 68.723 67.9413 69.1931 60.7066L71.0733 31.1233C71.2541 28.1507 70.2416 25.2855 68.1806 23.1007C66.0835 20.916 63.2632 19.6983 60.2259 19.6983C57.0078 19.6983 54.0791 17.9076 52.5604 15.0782L49.9209 9.84915C48.7277 7.48536 45.3288 5.40808 42.6531 5.40808H34.4091V5.37227Z" fill="#072D44"/>
<path d="M43.9558 26.8615H33.1084C31.626 26.8615 30.3966 25.6438 30.3966 24.1754C30.3966 22.707 31.626 21.4893 33.1084 21.4893H43.9558C45.4383 21.4893 46.6677 22.707 46.6677 24.1754C46.6677 25.6438 45.4383 26.8615 43.9558 26.8615Z" fill="#072D44"/>
<path d="M38.5323 62.6765C30.5414 62.6765 24.0691 56.2656 24.0691 48.3505C24.0691 40.4353 30.5414 34.0244 38.5323 34.0244C46.5232 34.0244 52.9954 40.4353 52.9954 48.3505C52.9954 56.2656 46.5232 62.6765 38.5323 62.6765ZM38.5323 39.3967C33.5425 39.3967 29.4928 43.408 29.4928 48.3505C29.4928 53.2929 33.5425 57.3042 38.5323 57.3042C43.5221 57.3042 47.5717 53.2929 47.5717 48.3505C47.5717 43.408 43.5221 39.3967 38.5323 39.3967Z" fill="#072D44"/>
</svg>
