<svg width="79" height="79" viewBox="0 0 79 79" fill="none" xmlns="http://www.w3.org/2000/svg">
<path d="M57.6265 78.2165C61.3386 78.2165 64.3478 75.3326 64.3478 71.7751C64.3478 68.2176 61.3386 65.3337 57.6265 65.3337C53.9145 65.3337 50.9053 68.2176 50.9053 71.7751C50.9053 75.3326 53.9145 78.2165 57.6265 78.2165Z" fill="#072D44"/>
<path d="M26.9007 78.2165C30.6128 78.2165 33.622 75.3326 33.622 71.7751C33.622 68.2176 30.6128 65.3337 26.9007 65.3337C23.1887 65.3337 20.1794 68.2176 20.1794 71.7751C20.1794 75.3326 23.1887 78.2165 26.9007 78.2165Z" fill="#072D44"/>
<path d="M13.8038 9.90132L13.0357 18.9193C12.8821 20.6492 14.3031 22.0847 16.1083 22.0847H74.9098C76.5229 22.0847 77.8672 20.9069 77.9824 19.361C78.4817 12.846 73.2967 7.54562 66.4986 7.54562H19.2961C18.912 5.92607 18.1439 4.38014 16.9532 3.09186C15.0329 1.14104 12.3444 0 9.57904 0H2.89617C1.32147 0 0.015625 1.25147 0.015625 2.76059C0.015625 4.26972 1.32147 5.52118 2.89617 5.52118H9.57904C10.7697 5.52118 11.8835 5.99969 12.69 6.80946C13.4966 7.65604 13.8807 8.76028 13.8038 9.90132Z" fill="#072D44"/>
<path d="M73.9884 27.606H15.0715C13.4584 27.606 12.1525 28.7838 11.9989 30.2929L10.6162 46.3044C10.0785 52.5985 15.2251 57.9725 21.7928 57.9725H64.5018C70.2629 57.9725 75.3327 53.4451 75.7552 47.9239L77.0226 30.7346C77.1762 29.0415 75.7936 27.606 73.9884 27.606Z" fill="#072D44"/>
</svg>
