<svg width="284" height="284" viewBox="0 0 284 284" fill="none" xmlns="http://www.w3.org/2000/svg">
<path d="M177.347 184.755H177.381L177.415 184.754L202.406 184.328L202.514 184.326L202.623 184.319C206.326 184.054 209.555 181.403 210.366 177.617L210.379 177.559L210.39 177.5L215.359 150.38L215.365 150.348L215.371 150.316C216.202 145.327 212.34 140.689 207.165 140.689H207.137L207.109 140.689L176.898 141.115C175.131 141.103 173.758 139.738 173.678 138.043L173.112 103.359C173.115 103.312 173.137 103.245 173.197 103.184C173.226 103.154 173.254 103.137 173.276 103.127C173.295 103.119 173.323 103.11 173.371 103.11H173.405L173.438 103.109L207.487 102.542C212.092 102.522 215.709 98.8927 215.709 94.2823V94.249L215.708 94.2157L215.141 60.1653C215.121 55.5606 211.491 51.9445 206.881 51.9445H206.852L206.822 51.945L168.484 52.5131L168.471 52.5133C142.707 52.9789 122.191 74.0981 122.657 99.8921L122.657 99.8926L123.367 138.94L123.367 138.975L123.369 139.01C123.426 140.607 122.213 142.027 120.298 142.11L103.332 142.393C98.7268 142.413 95.11 146.042 95.11 150.653V150.684L95.1105 150.716L95.5361 177.668C95.5552 182.273 99.1846 185.891 103.796 185.891H103.829L103.862 185.89L120.862 185.607C122.627 185.621 123.997 186.985 124.077 188.678L125.355 269.563L125.355 269.571C125.457 275.296 120.859 279.982 115.155 279.982H82.4969C57.4501 279.982 37.941 272.532 24.6968 259.271C11.4522 246.01 4 226.464 4 201.344V82.4969C4 57.45 11.4504 37.9397 24.6951 24.6951C37.9397 11.4504 57.45 4 82.4969 4H201.486C226.533 4 246.043 11.4504 259.287 24.6951C272.532 37.9397 279.982 57.45 279.982 82.4969V201.486C279.982 226.533 272.532 246.043 259.287 259.287C246.043 272.532 226.533 279.982 201.486 279.982H184.589C178.988 279.982 174.389 275.384 174.389 269.783V187.854C174.389 186.124 175.826 184.755 177.347 184.755Z" fill="white" stroke="black" stroke-width="8"/>
</svg>
