<svg width="79" height="72" viewBox="0 0 79 72" fill="none" xmlns="http://www.w3.org/2000/svg">
<path d="M39.469 67.9084C58.7988 67.9084 74.469 53.6019 74.469 35.9542C74.469 18.3064 58.7988 4 39.469 4C20.139 4 4.46899 18.3064 4.46899 35.9542C4.46899 53.6019 20.139 67.9084 39.469 67.9084Z" stroke="#072D44" stroke-width="7.89869" stroke-linecap="round" stroke-linejoin="round"/>
<path d="M25.4691 7.19556H28.9691C22.1441 25.8568 22.1441 46.0519 28.9691 64.7132H25.4691" stroke="#072D44" stroke-width="7.89869" stroke-linecap="round" stroke-linejoin="round"/>
<path d="M49.969 7.19556C56.794 25.8568 56.794 46.0519 49.969 64.7132" stroke="#072D44" stroke-width="7.89869" stroke-linecap="round" stroke-linejoin="round"/>
<path d="M7.96899 48.7359V45.5405C28.409 51.7716 50.529 51.7716 70.969 45.5405V48.7359" stroke="#072D44" stroke-width="7.89869" stroke-linecap="round" stroke-linejoin="round"/>
<path d="M7.96899 26.3681C28.409 20.1371 50.529 20.1371 70.969 26.3681" stroke="#072D44" stroke-width="7.89869" stroke-linecap="round" stroke-linejoin="round"/>
</svg>
