<svg width="284" height="285" viewBox="0 0 284 285" fill="none" xmlns="http://www.w3.org/2000/svg">
<path d="M279.982 82.5271V82.538V201.586C279.982 226.646 272.528 246.166 259.276 259.418C246.024 272.67 226.504 280.124 201.444 280.124H82.538C57.4783 280.124 37.9589 272.67 24.7078 259.402C11.456 246.134 4 226.578 4 201.444V82.538C4 57.4782 11.4543 37.9577 24.706 24.706C37.9577 11.4543 57.4782 4 82.538 4H201.586C226.647 4 246.166 11.4546 259.399 24.7042C272.631 37.953 280.051 57.4698 279.982 82.5271ZM225.855 76.9875L226.012 76.8467L226.153 76.6902C227.723 74.9456 228.965 73.001 229.855 70.8647C230.736 68.7508 231.299 66.3815 231.299 63.9279C231.299 61.4939 230.745 59.1429 229.876 57.0419C228.943 54.637 227.642 52.8201 226.153 51.1657L225.934 50.9224L225.678 50.718C225.498 50.5735 225.356 50.4507 225.168 50.2867C225.042 50.178 224.896 50.0513 224.705 49.8881C224.339 49.5777 223.81 49.1408 223.196 48.7614C222.191 48.0987 221.135 47.5536 220.028 47.1573C218.942 46.6406 217.8 46.2677 216.506 46.0681C210.61 44.8317 204.332 46.8589 200.178 51.0131L200.104 51.0875L200.033 51.1657C198.544 52.8201 197.243 54.6369 196.31 57.0418C195.441 59.1428 194.887 61.4939 194.887 63.9279C194.887 66.3815 195.45 68.7508 196.331 70.8647C197.221 73.001 198.463 74.9456 200.033 76.6902L200.104 76.7684L200.178 76.8428C203.655 80.3197 208.236 82.1341 213.093 82.1341C215.547 82.1341 217.916 81.5707 220.03 80.6899C222.166 79.7998 224.111 78.5576 225.855 76.9875ZM82.942 142.062C82.942 174.672 109.452 201.182 142.062 201.182C174.672 201.182 201.182 174.672 201.182 142.062C201.182 109.452 174.672 82.942 142.062 82.942C109.452 82.942 82.942 109.452 82.942 142.062Z" fill="white" stroke="black" stroke-width="8"/>
</svg>
