<svg width="67" height="72" viewBox="0 0 67 72" fill="none" xmlns="http://www.w3.org/2000/svg">
<path d="M47.5602 0H19.4732C7.27312 0 0 7.73916 0 20.721V50.572C0 63.5895 7.27312 71.3287 19.4732 71.3287H47.5267C59.7268 71.3287 66.9999 63.5895 66.9999 50.6077V20.721C67.0334 7.73916 59.7603 0 47.5602 0ZM33.5167 49.5021C26.3441 49.5021 20.5122 43.2965 20.5122 35.6643C20.5122 28.0322 26.3441 21.8266 33.5167 21.8266C40.6893 21.8266 46.5212 28.0322 46.5212 35.6643C46.5212 43.2965 40.6893 49.5021 33.5167 49.5021ZM53.3586 17.4042C53.191 17.8322 52.9564 18.2245 52.6547 18.5811C52.3196 18.9021 51.9509 19.1517 51.5487 19.3301C51.1465 19.5084 50.7108 19.6154 50.2751 19.6154C49.3701 19.6154 48.5322 19.2587 47.8954 18.5811C47.5937 18.2245 47.3591 17.8322 47.1915 17.4042C47.0239 16.9762 46.9234 16.5126 46.9234 16.049C46.9234 15.5853 47.0239 15.1217 47.1915 14.6937C47.3591 14.2301 47.5937 13.8734 47.8954 13.5168C48.6663 12.6965 49.8393 12.3042 50.9119 12.5538C51.1465 12.5895 51.3476 12.6608 51.5487 12.7678C51.7498 12.8392 51.9509 12.9462 52.152 13.0888C52.3196 13.1958 52.4871 13.3741 52.6547 13.5168C52.9564 13.8734 53.191 14.2301 53.3586 14.6937C53.5262 15.1217 53.6267 15.5853 53.6267 16.049C53.6267 16.5126 53.5262 16.9762 53.3586 17.4042Z" fill="#072D44"/>
</svg>
