<svg width="60" height="69" viewBox="0 0 60 69" fill="none" xmlns="http://www.w3.org/2000/svg">
<path d="M29.9941 41.4447C23.1814 41.4447 17.6162 35.8952 17.6162 29.0305C17.6162 22.1659 23.1814 16.6484 29.9941 16.6484C36.8066 16.6484 42.3718 22.198 42.3718 29.0625C42.3718 35.9273 36.8066 41.4447 29.9941 41.4447ZM29.9941 21.4602C25.8362 21.4602 22.4138 24.8604 22.4138 29.0625C22.4138 33.2648 25.8042 36.665 29.9941 36.665C34.184 36.665 37.5743 33.2648 37.5743 29.0625C37.5743 24.8604 34.152 21.4602 29.9941 21.4602Z" fill="#292D32"/>
<path d="M29.9901 69C25.2565 69 20.4909 67.2036 16.7808 63.643C7.34554 54.5328 -3.08119 40.0014 0.852821 22.7113C4.40303 7.0251 18.0601 0 29.9901 0H30.0221C41.9521 0 55.6092 7.0251 59.1594 22.7434C63.0614 40.0335 52.6347 54.5328 43.1995 63.643C39.4893 67.2036 34.7237 69 29.9901 69ZM29.9901 4.81172C20.6828 4.81172 8.72085 9.78382 5.55445 23.7699C2.10019 38.8787 11.5674 51.9024 20.1391 60.1464C25.6723 65.5035 34.3399 65.5035 39.8731 60.1464C48.4128 51.9024 57.8801 38.8787 54.4898 23.7699C51.2914 9.78382 39.2974 4.81172 29.9901 4.81172Z" fill="#292D32"/>
</svg>
