<svg width="67" height="62" viewBox="0 0 67 62" fill="none" xmlns="http://www.w3.org/2000/svg">
<path d="M50.0232 62C46.5339 62 42.8593 61.2214 39.0613 59.7219C35.3559 58.2512 31.6196 56.2326 27.9759 53.7814C24.3631 51.3014 20.8739 48.533 17.5699 45.5051C14.2967 42.4195 11.3324 39.1609 8.70774 35.8158C6.05219 32.3553 3.92157 28.8949 2.40852 25.5498C0.802841 21.974 0 18.5135 0 15.2549C0 13.0056 0.432299 10.8716 1.26602 8.88186C2.13062 6.83442 3.52015 4.93116 5.40374 3.28744C7.78138 1.09581 10.4987 0 13.4013 0C14.6055 0 15.8407 0.259535 16.8905 0.72093C18.0948 1.24 19.1138 2.0186 19.8549 3.05674L27.0187 12.4865C27.6671 13.3228 28.1612 14.1302 28.5008 14.9377C28.9023 15.8028 29.1184 16.6679 29.1184 17.5042C29.1184 18.6 28.7788 19.667 28.1303 20.6763C27.6671 21.4549 26.9569 22.2912 26.0614 23.1274L23.9617 25.1749C23.9926 25.2614 24.0235 25.3191 24.0543 25.3767C24.4249 25.9823 25.166 27.0205 26.5864 28.5777C28.0994 30.1926 29.5198 31.6633 30.9403 33.0186C32.7621 34.6912 34.2751 36.0177 35.6955 37.1135C37.4556 38.4977 38.5981 39.1898 39.2774 39.507L39.2157 39.6512L41.4698 37.5749C42.4271 36.6809 43.3534 36.0177 44.2489 35.5851C45.9472 34.6047 48.1087 34.4316 50.2702 35.2679C51.073 35.5851 51.9376 36.0177 52.864 36.6233L63.1156 43.4288C64.2581 44.1498 65.0919 45.0726 65.5859 46.1684C66.0491 47.2642 66.2652 48.2735 66.2652 49.2828C66.2652 50.667 65.9256 52.0512 65.2771 53.3488C64.6287 54.6465 63.8258 55.7712 62.8069 56.8093C61.0468 58.626 59.1323 59.9237 56.9091 60.76C54.7785 61.5674 52.4626 62 50.0232 62ZM13.4013 4.32558C11.7029 4.32558 10.1281 5.01767 8.6151 6.40186C7.19469 7.64186 6.20658 8.99721 5.58901 10.4679C4.94056 11.9674 4.63177 13.5535 4.63177 15.2549C4.63177 17.9367 5.3111 20.8493 6.66975 23.8484C8.05929 26.9051 10.0046 30.0772 12.4749 33.2493C14.9452 36.4214 17.7551 39.507 20.843 42.4195C23.9308 45.2744 27.2657 47.9274 30.6932 50.2633C34.0281 52.5414 37.4556 54.387 40.8522 55.7135C46.1325 57.8186 51.073 58.3088 55.149 56.7228C56.7238 56.1172 58.1133 55.1944 59.3793 53.8679C60.0895 53.147 60.6454 52.3684 61.1085 51.4456C61.4791 50.7247 61.6643 49.9749 61.6643 49.2251C61.6643 48.7637 61.5717 48.3023 61.3247 47.7833C61.2321 47.6102 61.0468 47.293 60.4601 46.9181L50.2084 40.1126C49.5909 39.7088 49.035 39.4205 48.5101 39.2186C47.8308 38.9591 47.5529 38.6995 46.503 39.3051C45.8854 39.5935 45.3296 40.026 44.7121 40.6028L42.3653 42.7656C41.161 43.8614 39.3083 44.1209 37.8879 43.6307L37.0542 43.2847C35.7882 42.6502 34.306 41.6698 32.6694 40.3721C31.1873 39.1898 29.5816 37.8056 27.6363 36.0177C26.1232 34.5758 24.6102 33.0474 23.0354 31.346C21.5841 29.76 20.5342 28.4046 19.8857 27.28L19.5152 26.4149C19.3299 25.7516 19.2682 25.3767 19.2682 24.973C19.2682 23.9349 19.6696 23.0121 20.4416 22.2912L22.7575 20.0419C23.375 19.4651 23.8382 18.9172 24.147 18.427C24.394 18.0521 24.4866 17.7349 24.4866 17.4465C24.4866 17.2158 24.394 16.8698 24.2396 16.5237C24.0235 16.0623 23.6838 15.5433 23.2515 14.9953L16.0877 5.53674C15.7789 5.13302 15.4084 4.84465 14.9452 4.64279C14.4511 4.44093 13.9262 4.32558 13.4013 4.32558ZM39.2157 39.68L38.7216 41.6409L39.5554 39.6223C39.401 39.5935 39.2774 39.6223 39.2157 39.68Z" fill="#292D32"/>
</svg>
